{
  "asset": {
    "version": "2.0",
    "generator": "babylon.js glTF exporter for 3dsmax 2018 vCustom.Build.Version"
  },
  "extensionsUsed": [
    "KHR_lights_punctual"
  ],
  "scene": 0,
  "scenes": [
    {
      "nodes": [
        0,
        1,
        2
      ]
    }
  ],
  "nodes": [
    {
      "mesh": 0,
      "translation": [
        -0.5439453,
        0.0,
        8.354431
      ],
      "name": "Box001"
    },
    {
      "translation": [
        8.409393,
        24.04018,
        11.8579865
      ],
      "rotation": [
        -0.707106769,
        0.0,
        0.0,
        0.707106769
      ],
      "name": "PhotometricLight001",
      "extensions": {
        "KHR_lights_punctual": {
          "light": 0
        }
      }
    },
    {
      "translation": [
        4.13425446,
        -16.18853,
        12.9804688
      ],
      "rotation": [
        -0.707106769,
        0.0,
        0.0,
        0.707106769
      ],
      "name": "PhotometricLight002",
      "extensions": {
        "KHR_lights_punctual": {
          "light": 1
        }
      }
    }
  ],
  "meshes": [
    {
      "primitives": [
        {
          "attributes": {
            "POSITION": 1,
            "TANGENT": 2,
            "NORMAL": 3,
            "TEXCOORD_0": 4
          },
          "indices": 0,
          "material": 0
        }
      ],
      "name": "Box001"
    }
  ],
  "accessors": [
    {
      "bufferView": 0,
      "componentType": 5123,
      "count": 36,
      "type": "SCALAR",
      "name": "accessorIndices"
    },
    {
      "bufferView": 1,
      "componentType": 5126,
      "count": 36,
      "max": [
        58.19565,
        11.3020868,
        62.83175
      ],
      "min": [
        -58.19565,
        0.0,
        -62.83175
      ],
      "type": "VEC3",
      "name": "accessorPositions"
    },
    {
      "bufferView": 2,
      "componentType": 5126,
      "count": 36,
      "type": "VEC4",
      "name": "accessorTangents"
    },
    {
      "bufferView": 1,
      "byteOffset": 432,
      "componentType": 5126,
      "count": 36,
      "type": "VEC3",
      "name": "accessorNormals"
    },
    {
      "bufferView": 3,
      "componentType": 5126,
      "count": 36,
      "type": "VEC2",
      "name": "accessorUVs"
    }
  ],
  "bufferViews": [
    {
      "buffer": 0,
      "byteLength": 72,
      "name": "bufferViewScalar"
    },
    {
      "buffer": 0,
      "byteOffset": 72,
      "byteLength": 864,
      "byteStride": 12,
      "name": "bufferViewFloatVec3"
    },
    {
      "buffer": 0,
      "byteOffset": 936,
      "byteLength": 576,
      "byteStride": 16,
      "name": "bufferViewFloatVec4"
    },
    {
      "buffer": 0,
      "byteOffset": 1512,
      "byteLength": 288,
      "byteStride": 8,
      "name": "bufferViewFloatVec2"
    }
  ],
  "buffers": [
    {
      "uri": "test.bin",
      "byteLength": 1800
    }
  ],
  "materials": [
    {
      "pbrMetallicRoughness": {
        "baseColorFactor": [
          0.1764706,
          0.388235331,
          0.24313727,
          1.0
        ],
        "metallicFactor": 0.0
      },
      "name": "01 - Default"
    }
  ],
  "extensions": {
    "KHR_lights_punctual": {
      "lights": [
        {
          "color": [
            2.78720665,
            0.5679655,
            1E-06
          ],
          "intensity": 50000.0,
          "type": "point"
        },
        {
          "color": [
            0.904883146,
            1.0083766,
            1.19620013
          ],
          "intensity": 50000.0,
          "type": "point"
        }
      ]
    }
  }
}